<?xml version="1.0" encoding="utf-8"?>
<!-- Generator: Adobe Illustrator 24.0.1, SVG Export Plug-In . SVG Version: 6.00 Build 0)  -->
<svg version="1.1" id="Layer_1" xmlns="http://www.w3.org/2000/svg" xmlns:xlink="http://www.w3.org/1999/xlink" x="0px" y="0px"
	 viewBox="0 0 25 31.2" style="enable-background:new 0 0 25 31.2;" xml:space="preserve">
<path d="M18.6,4.2l3.2,3.2c0.3,0.3,0.6,0.7,0.8,1.2C22.8,9,23,9.6,23,10.3v14.1c0,2-1.6,3.5-3.5,3.5H5.5C3.6,28,2,26.4,2,24.5V6.5
	C2,4.6,3.6,3,5.5,3h10.2c0.7,0,1.3,0.2,1.8,0.4C18,3.6,18.4,3.9,18.6,4.2 M17.6,5.2c-0.1-0.1-0.4-0.3-0.8-0.5
	c-0.3-0.2-0.8-0.3-1.2-0.3H5.5c-1.2,0-2.1,1-2.1,2.1v17.9c0,1.2,0.9,2.1,2.1,2.1h13.9c1.2,0,2.1-1,2.1-2.1V10.3
	c0-0.4-0.1-0.8-0.3-1.2c-0.2-0.3-0.4-0.6-0.5-0.8L17.6,5.2 M12.5,11.2c-3.6,0-6.5,1.4-6.5,3.1s2.9,3.1,6.5,3.1s6.5-1.4,6.5-3.1
	S16.1,11.2,12.5,11.2z M12.5,18.5c-2.8,0-5.2-0.8-6.1-2l0,0C6.1,16,6,16.2,6,16.4v1.1c0,1.7,2.9,3.1,6.5,3.1s6.5-1.4,6.5-3.1v-1.1
	c0-0.2-0.1-0.3-0.4,0.1l0,0C17.7,17.6,15.3,18.5,12.5,18.5z M12.5,21.6c-2.8,0-5.2-0.8-6.1-2l0,0C6.1,19.2,6,19.4,6,19.5v1.1
	c0,1.7,2.9,3.1,6.5,3.1s6.5-1.4,6.5-3.1v-1.1c0-0.2-0.1-0.3-0.4,0.1h0C17.7,20.8,15.3,21.6,12.5,21.6z"/>
</svg>
